<?xml version="1.0" encoding="utf-8"?>
<!-- Generator: Adobe Illustrator 23.0.0, SVG Export Plug-In . SVG Version: 6.00 Build 0)  -->
<svg version="1.1" id="Layer_1" xmlns="http://www.w3.org/2000/svg" xmlns:xlink="http://www.w3.org/1999/xlink" x="0px" y="0px"
	 viewBox="0 0 141.7 141.7" style="enable-background:new 0 0 141.7 141.7;" xml:space="preserve">
<style type="text/css">
	.st0{fill:url(#SVGID_1_);}
	.st1{fill:url(#SVGID_2_);}
	.st2{fill:url(#SVGID_3_);}
	.st3{fill:url(#SVGID_4_);}
	.st4{fill:url(#SVGID_5_);}
	.st5{fill:url(#SVGID_6_);}
	.st6{fill:url(#SVGID_7_);}
	.st7{fill:url(#SVGID_8_);}
	.st8{fill:url(#SVGID_9_);}
	.st9{fill:url(#SVGID_10_);}
	.st10{fill:url(#SVGID_11_);}
</style>
<g>
	<g>
		<linearGradient id="SVGID_1_" gradientUnits="userSpaceOnUse" x1="22.55" y1="72.3" x2="119.75" y2="72.3">
			<stop  offset="0.0676" style="stop-color:#EF4A24"/>
			<stop  offset="0.4475" style="stop-color:#F47B20"/>
			<stop  offset="0.8318" style="stop-color:#FAA426"/>
			<stop  offset="1" style="stop-color:#FFC53A"/>
		</linearGradient>
		<rect x="22.55" y="71.9" class="st0" width="97.2" height="0.8"/>
	</g>
	<g>
		<linearGradient id="SVGID_2_" gradientUnits="userSpaceOnUse" x1="1.55" y1="78.2" x2="140.15" y2="78.2">
			<stop  offset="0.0676" style="stop-color:#EF4A24"/>
			<stop  offset="0.4475" style="stop-color:#F47B20"/>
			<stop  offset="0.8318" style="stop-color:#FAA426"/>
			<stop  offset="1" style="stop-color:#FFC53A"/>
		</linearGradient>
		<rect x="1.55" y="77.8" class="st1" width="138.6" height="0.8"/>
	</g>
	<g>
		<linearGradient id="SVGID_3_" gradientUnits="userSpaceOnUse" x1="46.25" y1="59.05" x2="86.05" y2="59.05">
			<stop  offset="0.0676" style="stop-color:#EF4A24"/>
			<stop  offset="0.4475" style="stop-color:#F47B20"/>
			<stop  offset="0.8318" style="stop-color:#FAA426"/>
			<stop  offset="1" style="stop-color:#FFC53A"/>
		</linearGradient>
		<polygon class="st2" points="50.25,69.4 58.95,54 64.35,54 55.45,69.4 59.45,69.4 68.15,54 72.95,54 82.05,69.4 86.05,69.4 
			74.15,48.7 70.75,48.7 69.85,48.7 58.15,48.7 55.15,54 46.25,69.4 		"/>
		<linearGradient id="SVGID_4_" gradientUnits="userSpaceOnUse" x1="61.15" y1="48.1" x2="95.35" y2="48.1">
			<stop  offset="0.0676" style="stop-color:#EF4A24"/>
			<stop  offset="0.4475" style="stop-color:#F47B20"/>
			<stop  offset="0.8318" style="stop-color:#FAA426"/>
			<stop  offset="1" style="stop-color:#FFC53A"/>
		</linearGradient>
		<polygon class="st3" points="76.15,43.6 91.45,69.4 95.35,69.4 80.45,43.6 75.65,35.2 70.75,26.8 65.95,35.2 61.15,43.6 
			70.75,43.6 		"/>
		<linearGradient id="SVGID_5_" gradientUnits="userSpaceOnUse" x1="28.55" y1="89.15" x2="47.85" y2="89.15">
			<stop  offset="0.0676" style="stop-color:#EF4A24"/>
			<stop  offset="0.4475" style="stop-color:#F47B20"/>
			<stop  offset="0.8318" style="stop-color:#FAA426"/>
			<stop  offset="1" style="stop-color:#FFC53A"/>
		</linearGradient>
		<polygon class="st4" points="40.35,87 45.25,78.3 41.05,78.3 38.15,83.3 38.15,83.3 38.15,83.4 33.35,91.7 28.55,100 38.15,100 
			47.85,100 43.05,91.7 		"/>
		<linearGradient id="SVGID_6_" gradientUnits="userSpaceOnUse" x1="45.85" y1="89.2" x2="113.05" y2="89.2">
			<stop  offset="0.0676" style="stop-color:#EF4A24"/>
			<stop  offset="0.4475" style="stop-color:#F47B20"/>
			<stop  offset="0.8318" style="stop-color:#FAA426"/>
			<stop  offset="1" style="stop-color:#FFC53A"/>
		</linearGradient>
		<polygon class="st5" points="108.25,91.7 103.45,83.3 98.65,91.7 95.85,96.5 57.85,96.5 55.25,92 92.45,92 94.55,88.3 94.55,88.3 
			100.35,78.3 94.35,78.3 92.75,81 91.15,78.3 87.35,78.3 90.85,84.2 88.55,88.3 53.05,88.3 50.95,84.6 54.55,78.3 50.35,78.3 
			45.85,86.2 47.95,89.9 47.95,89.9 53.85,100.1 59.15,100 59.15,100.1 93.85,100 103.45,100 113.05,100 		"/>
	</g>
</g>
<g>
	<linearGradient id="SVGID_7_" gradientUnits="userSpaceOnUse" x1="41.9554" y1="110.1277" x2="48.6697" y2="116.842">
		<stop  offset="0.0676" style="stop-color:#EF4A24"/>
		<stop  offset="0.4475" style="stop-color:#F47B20"/>
		<stop  offset="0.8318" style="stop-color:#FAA426"/>
		<stop  offset="1" style="stop-color:#FFC53A"/>
	</linearGradient>
	<path class="st6" d="M42.97,117.82v-8.7h2.41c0.86,0,1.6,0.13,2.2,0.39c0.6,0.26,1.09,0.61,1.46,1.04
		c0.38,0.44,0.65,0.92,0.82,1.45c0.17,0.53,0.26,1.06,0.26,1.58c0,0.65-0.11,1.23-0.34,1.76c-0.23,0.52-0.54,0.97-0.95,1.34
		c-0.4,0.37-0.87,0.65-1.39,0.85s-1.07,0.29-1.64,0.29H42.97z M44.22,116.6h1.34c0.63,0,1.19-0.12,1.68-0.36
		c0.49-0.24,0.87-0.59,1.16-1.06c0.28-0.46,0.43-1.03,0.43-1.69c0-0.54-0.09-1.01-0.27-1.41c-0.18-0.4-0.42-0.72-0.71-0.98
		s-0.63-0.45-1-0.58c-0.37-0.13-0.74-0.19-1.13-0.19h-1.5V116.6z"/>
	<linearGradient id="SVGID_8_" gradientUnits="userSpaceOnUse" x1="56.0897" y1="109.8655" x2="63.3739" y2="117.1497">
		<stop  offset="0.0676" style="stop-color:#EF4A24"/>
		<stop  offset="0.4475" style="stop-color:#F47B20"/>
		<stop  offset="0.8318" style="stop-color:#FAA426"/>
		<stop  offset="1" style="stop-color:#FFC53A"/>
	</linearGradient>
	<path class="st7" d="M56.84,109.12h5.7v1.21h-4.45v2.51h3.97v1.21h-3.97v2.56h4.62v1.21h-5.87V109.12z"/>
	<linearGradient id="SVGID_9_" gradientUnits="userSpaceOnUse" x1="67.6364" y1="110.9785" x2="74.7943" y2="118.1365">
		<stop  offset="0.0676" style="stop-color:#EF4A24"/>
		<stop  offset="0.4475" style="stop-color:#F47B20"/>
		<stop  offset="0.8318" style="stop-color:#FAA426"/>
		<stop  offset="1" style="stop-color:#FFC53A"/>
	</linearGradient>
	<path class="st8" d="M69.5,109.12h1.25v7.49h4.37v1.21H69.5V109.12z"/>
	<linearGradient id="SVGID_10_" gradientUnits="userSpaceOnUse" x1="79.9999" y1="109.2835" x2="86.0961" y2="115.3797">
		<stop  offset="0.0676" style="stop-color:#EF4A24"/>
		<stop  offset="0.4475" style="stop-color:#F47B20"/>
		<stop  offset="0.8318" style="stop-color:#FAA426"/>
		<stop  offset="1" style="stop-color:#FFC53A"/>
	</linearGradient>
	<path class="st9" d="M80.17,109.12h5.8v1.21h-2.3v7.49H82.4v-7.49h-2.23V109.12z"/>
	<linearGradient id="SVGID_11_" gradientUnits="userSpaceOnUse" x1="91.6281" y1="111.96" x2="98.1081" y2="118.44">
		<stop  offset="0.0676" style="stop-color:#EF4A24"/>
		<stop  offset="0.4475" style="stop-color:#F47B20"/>
		<stop  offset="0.8318" style="stop-color:#FAA426"/>
		<stop  offset="1" style="stop-color:#FFC53A"/>
	</linearGradient>
	<path class="st10" d="M91,117.82l3.83-9.06h0.07l3.83,9.06h-1.45l-0.86-2.18h-3.26l-0.9,2.18H91z M93.58,114.55H96l-1.18-3
		L93.58,114.55z"/>
</g>
</svg>
