<?xml version="1.0" encoding="utf-8"?>
<!-- Generator: Adobe Illustrator 24.0.2, SVG Export Plug-In . SVG Version: 6.00 Build 0)  -->
<svg version="1.1" xmlns="http://www.w3.org/2000/svg" xmlns:xlink="http://www.w3.org/1999/xlink" x="0px" y="0px"
	 viewBox="0 0 141.7 141.7" style="enable-background:new 0 0 141.7 141.7;" xml:space="preserve">
<style type="text/css">
	.st0{fill:url(#SVGID_1_);}
	.st1{fill:url(#SVGID_2_);}
	.st2{fill:url(#SVGID_3_);}
	.st3{fill:url(#SVGID_4_);}
	.st4{fill:url(#SVGID_5_);}
	.st5{fill:url(#SVGID_6_);}
	.st6{fill:url(#SVGID_7_);}
	.st7{fill:url(#SVGID_8_);}
	.st8{fill:url(#SVGID_9_);}
	.st9{fill:url(#SVGID_10_);}
	.st10{fill:url(#SVGID_11_);}
</style>
<g id="Layer_1">
	<g>
		<g>
			
				<linearGradient id="SVGID_1_" gradientUnits="userSpaceOnUse" x1="22.55" y1="71.7" x2="119.75" y2="71.7" gradientTransform="matrix(1 0 0 -1 0 144)">
				<stop  offset="6.759988e-02" style="stop-color:#161419"/>
				<stop  offset="0.4475" style="stop-color:#3D4268"/>
				<stop  offset="0.8318" style="stop-color:#7269AD"/>
				<stop  offset="1" style="stop-color:#9492C7"/>
			</linearGradient>
			<rect x="22.5" y="71.9" class="st0" width="97.2" height="0.8"/>
		</g>
		<g>
			
				<linearGradient id="SVGID_2_" gradientUnits="userSpaceOnUse" x1="1.55" y1="65.8" x2="140.15" y2="65.8" gradientTransform="matrix(1 0 0 -1 0 144)">
				<stop  offset="6.759988e-02" style="stop-color:#161419"/>
				<stop  offset="0.4475" style="stop-color:#3D4268"/>
				<stop  offset="0.8318" style="stop-color:#7269AD"/>
				<stop  offset="1" style="stop-color:#9492C7"/>
			</linearGradient>
			<rect x="1.5" y="77.8" class="st1" width="138.6" height="0.8"/>
		</g>
		<g>
			
				<linearGradient id="SVGID_3_" gradientUnits="userSpaceOnUse" x1="46.25" y1="84.95" x2="86.05" y2="84.95" gradientTransform="matrix(1 0 0 -1 0 144)">
				<stop  offset="6.759988e-02" style="stop-color:#161419"/>
				<stop  offset="0.4475" style="stop-color:#3D4268"/>
				<stop  offset="0.8318" style="stop-color:#7269AD"/>
				<stop  offset="1" style="stop-color:#9492C7"/>
			</linearGradient>
			<polygon class="st2" points="50.3,69.4 59,54 64.3,54 55.5,69.4 59.5,69.4 68.2,54 72.9,54 82.1,69.4 86.1,69.4 74.2,48.7 
				70.8,48.7 69.8,48.7 58.2,48.7 55.2,54 46.3,69.4 			"/>
			
				<linearGradient id="SVGID_4_" gradientUnits="userSpaceOnUse" x1="61.15" y1="95.9" x2="95.35" y2="95.9" gradientTransform="matrix(1 0 0 -1 0 144)">
				<stop  offset="6.759988e-02" style="stop-color:#161419"/>
				<stop  offset="0.4475" style="stop-color:#3D4268"/>
				<stop  offset="0.8318" style="stop-color:#7269AD"/>
				<stop  offset="1" style="stop-color:#9492C7"/>
			</linearGradient>
			<polygon class="st3" points="76.2,43.6 91.4,69.4 95.3,69.4 80.4,43.6 75.7,35.2 70.8,26.8 65.9,35.2 61.2,43.6 70.8,43.6 			"/>
			
				<linearGradient id="SVGID_5_" gradientUnits="userSpaceOnUse" x1="28.55" y1="54.85" x2="47.85" y2="54.85" gradientTransform="matrix(1 0 0 -1 0 144)">
				<stop  offset="6.759988e-02" style="stop-color:#161419"/>
				<stop  offset="0.4475" style="stop-color:#3D4268"/>
				<stop  offset="0.8318" style="stop-color:#7269AD"/>
				<stop  offset="1" style="stop-color:#9492C7"/>
			</linearGradient>
			<polygon class="st4" points="40.3,87 45.3,78.3 41,78.3 38.2,83.3 38.2,83.3 38.2,83.4 33.3,91.7 28.5,100 38.2,100 47.8,100 
				43,91.7 			"/>
			
				<linearGradient id="SVGID_6_" gradientUnits="userSpaceOnUse" x1="45.85" y1="54.8" x2="113.05" y2="54.8" gradientTransform="matrix(1 0 0 -1 0 144)">
				<stop  offset="6.759988e-02" style="stop-color:#161419"/>
				<stop  offset="0.4475" style="stop-color:#3D4268"/>
				<stop  offset="0.8318" style="stop-color:#7269AD"/>
				<stop  offset="1" style="stop-color:#9492C7"/>
			</linearGradient>
			<polygon class="st5" points="108.3,91.7 103.4,83.3 98.7,91.7 95.8,96.5 57.8,96.5 55.3,92 92.4,92 94.6,88.3 94.6,88.3 
				100.3,78.3 94.3,78.3 92.8,81 91.2,78.3 87.3,78.3 90.8,84.2 88.6,88.3 53,88.3 51,84.6 54.5,78.3 50.3,78.3 45.8,86.2 48,89.9 
				48,89.9 53.8,100.1 59.2,100 59.2,100.1 93.8,100 103.4,100 113.1,100 			"/>
		</g>
	</g>
	<g>
		<linearGradient id="SVGID_7_" gradientUnits="userSpaceOnUse" x1="41.9767" y1="116.8267" x2="48.6534" y2="110.1499">
			<stop  offset="6.759988e-02" style="stop-color:#161419"/>
			<stop  offset="0.4475" style="stop-color:#3D4268"/>
			<stop  offset="0.8318" style="stop-color:#7269AD"/>
			<stop  offset="1" style="stop-color:#9492C7"/>
		</linearGradient>
		<path class="st6" d="M43,117.8v-8.7h2.4c0.9,0,1.6,0.1,2.2,0.4c0.6,0.3,1.1,0.6,1.5,1c0.4,0.4,0.7,0.9,0.8,1.4s0.3,1.1,0.3,1.6
			c0,0.7-0.1,1.2-0.3,1.8c-0.2,0.5-0.5,1-1,1.3c-0.4,0.4-0.9,0.7-1.4,0.8s-1.1,0.3-1.6,0.3H43z M44.2,116.6h1.3
			c0.6,0,1.2-0.1,1.7-0.4s0.9-0.6,1.2-1.1c0.3-0.5,0.4-1,0.4-1.7c0-0.5-0.1-1-0.3-1.4s-0.4-0.7-0.7-1s-0.6-0.4-1-0.6
			c-0.4-0.1-0.7-0.2-1.1-0.2h-1.5V116.6z"/>
		
			<linearGradient id="SVGID_8_" gradientUnits="userSpaceOnUse" x1="56.09" y1="34.13" x2="63.375" y2="26.845" gradientTransform="matrix(1 0 0 -1 0 144)">
			<stop  offset="6.759988e-02" style="stop-color:#161419"/>
			<stop  offset="0.4475" style="stop-color:#3D4268"/>
			<stop  offset="0.8318" style="stop-color:#7269AD"/>
			<stop  offset="1" style="stop-color:#9492C7"/>
		</linearGradient>
		<path class="st7" d="M56.8,109.1h5.7v1.2h-4.5v2.5h4v1.2h-4v2.6h4.6v1.2h-5.9V109.1z"/>
		
			<linearGradient id="SVGID_9_" gradientUnits="userSpaceOnUse" x1="67.6375" y1="33.0175" x2="74.7975" y2="25.8575" gradientTransform="matrix(1 0 0 -1 0 144)">
			<stop  offset="6.759988e-02" style="stop-color:#161419"/>
			<stop  offset="0.4475" style="stop-color:#3D4268"/>
			<stop  offset="0.8318" style="stop-color:#7269AD"/>
			<stop  offset="1" style="stop-color:#9492C7"/>
		</linearGradient>
		<path class="st8" d="M69.5,109.1h1.3v7.5h4.4v1.2h-5.6V109.1z"/>
		
			<linearGradient id="SVGID_10_" gradientUnits="userSpaceOnUse" x1="80.0025" y1="34.7125" x2="86.1025" y2="28.6125" gradientTransform="matrix(1 0 0 -1 0 144)">
			<stop  offset="6.759988e-02" style="stop-color:#161419"/>
			<stop  offset="0.4475" style="stop-color:#3D4268"/>
			<stop  offset="0.8318" style="stop-color:#7269AD"/>
			<stop  offset="1" style="stop-color:#9492C7"/>
		</linearGradient>
		<path class="st9" d="M80.2,109.1H86v1.2h-2.3v7.5h-1.3v-7.5h-2.2V109.1z"/>
		<linearGradient id="SVGID_11_" gradientUnits="userSpaceOnUse" x1="91.625" y1="118.445" x2="98.105" y2="111.965">
			<stop  offset="6.759988e-02" style="stop-color:#161419"/>
			<stop  offset="0.4475" style="stop-color:#3D4268"/>
			<stop  offset="0.8318" style="stop-color:#7269AD"/>
			<stop  offset="1" style="stop-color:#9492C7"/>
		</linearGradient>
		<path class="st10" d="M91,117.8l3.8-9.1h0.1l3.8,9.1h-1.4l-0.9-2.2h-3.3l-0.9,2.2H91z M93.6,114.6H96l-1.2-3L93.6,114.6z"/>
	</g>
</g>
<g id="Warstwa_2">
</g>
</svg>
