<svg xmlns="http://www.w3.org/2000/svg" viewBox="0 0 138.6 91"><defs><style>.cls-1{fill:#fff;}</style></defs><title>Zasób 1logo</title><g id="Warstwa_2" data-name="Warstwa 2"><g id="Warstwa_1-2" data-name="Warstwa 1"><g id="Layer_1" data-name="Layer 1"><rect class="cls-1" x="21" y="45.1" width="97.2" height="0.8"/><rect class="cls-1" y="51" width="138.6" height="0.8"/><polygon class="cls-1" points="48.8 42.6 57.5 27.2 62.8 27.2 54 42.6 58 42.6 66.7 27.2 71.4 27.2 80.6 42.6 84.6 42.6 72.7 21.9 69.3 21.9 68.3 21.9 56.7 21.9 53.7 27.2 44.8 42.6 48.8 42.6"/><polygon class="cls-1" points="74.7 16.8 89.9 42.6 93.8 42.6 78.9 16.8 74.2 8.4 69.3 0 64.4 8.4 59.7 16.8 69.3 16.8 74.7 16.8"/><polygon class="cls-1" points="38.8 60.2 43.8 51.5 39.5 51.5 36.7 56.5 36.7 56.5 36.7 56.6 31.8 64.9 27 73.2 36.7 73.2 46.3 73.2 41.5 64.9 38.8 60.2"/><polygon class="cls-1" points="106.8 64.9 101.9 56.5 97.2 64.9 94.3 69.7 56.3 69.7 53.8 65.2 90.9 65.2 93.1 61.5 93.1 61.5 98.8 51.5 92.8 51.5 91.3 54.2 89.7 51.5 85.8 51.5 89.3 57.4 87.1 61.5 51.5 61.5 49.5 57.8 53 51.5 48.8 51.5 44.3 59.4 46.5 63.1 46.5 63.1 52.3 73.3 57.7 73.2 57.7 73.3 92.3 73.2 101.9 73.2 111.6 73.2 106.8 64.9"/><path class="cls-1" d="M41.5,91V82.3h2.4a4.81,4.81,0,0,1,2.2.4,5.6,5.6,0,0,1,1.5,1,2.85,2.85,0,0,1,.8,1.4,9,9,0,0,1,.3,1.6,5.23,5.23,0,0,1-.3,1.8,2.56,2.56,0,0,1-1,1.3,2.85,2.85,0,0,1-1.4.8,9,9,0,0,1-1.6.3H41.5Zm1.2-1.2H44a3.29,3.29,0,0,0,1.7-.4,3.18,3.18,0,0,0,1.2-1.1,3.06,3.06,0,0,0,.4-1.7,3.19,3.19,0,0,0-.3-1.4,3.59,3.59,0,0,0-.7-1,3.33,3.33,0,0,0-1-.6,4.25,4.25,0,0,0-1.1-.2H42.7Z"/><path class="cls-1" d="M55.3,82.3H61v1.2H56.5V86h4v1.2h-4v2.6h4.6V91H55.2V82.3Z"/><path class="cls-1" d="M68,82.3h1.3v7.5h4.4V91H68.1V82.3Z"/><path class="cls-1" d="M78.7,82.3h5.8v1.2H82.2V91H80.9V83.5H78.7Z"/><path class="cls-1" d="M89.5,91l3.8-9.1h.1L97.2,91H95.8l-.9-2.2H91.6L90.7,91Zm2.6-3.2h2.4l-1.2-3Z"/></g></g></g></svg>