<?xml version="1.0" encoding="utf-8"?>
<!-- Generator: Adobe Illustrator 25.3.1, SVG Export Plug-In . SVG Version: 6.00 Build 0)  -->
<svg version="1.1" id="Warstwa_1" xmlns="http://www.w3.org/2000/svg" xmlns:xlink="http://www.w3.org/1999/xlink" x="0px" y="0px"
	 viewBox="0 0 200 200" style="enable-background:new 0 0 200 200;" xml:space="preserve">
<style type="text/css">
	.st0{fill:#F44650;}
</style>
<path class="st0" d="M34.6,115.3l-2.1,0.1c7,31.1,34.8,54.5,68,54.5c33.2,0,61-23.3,68-54.5l-2.1-0.2c-6.9,30-33.8,52.5-65.9,52.5
	C68.4,167.8,41.5,145.3,34.6,115.3 M138,90.5v9.4c0,2.8-0.1,6.7-4,6.7c-1.2,0-2-0.3-2.5-0.9c-0.5-0.6-0.8-1.3-1-2.2
	c-0.1-0.9-0.2-2.1-0.2-3.7v-9.3h-2h-7l0,9.4c0,4.5,0.8,7.7,2.4,9.7c1.6,2,3.8,3,6.6,3c3.4,0,6-1,7.7-3.1v2.4h9V90.5H138z
	 M91.5,108.1l-4.5,4.5l-4.5-4.5l-4.2,4.2l4.5,4.5l-4.5,4.5l4.2,4.2l4.5-4.5l4.5,4.5l4.2-4.2l-4.5-4.5l4.5-4.5L91.5,108.1z
	 M82.4,106.5h9V84.2h-9V106.5z M62.9,99c0.2-1.2,0.7-2,1.3-2.7c0.7-0.6,1.7-0.9,3-0.9c1.3,0,2.2,0.3,2.8,0.9s1,1.5,1.2,2.7H62.9z
	 M64.2,106.2c-0.8-0.9-1.2-2-1.4-3.5h17.6v-1.4c0-2.2-0.6-4.1-1.7-5.8c-1.1-1.6-2.6-2.9-4.6-3.8c-2-0.9-4.3-1.4-6.9-1.4
	c-2.6,0-4.9,0.5-6.9,1.4c-2.1,0.9-3.7,2.2-4.9,3.9c-1.2,1.7-1.8,3.6-1.8,5.9c0,2.2,0.6,4.1,1.8,5.8c1.2,1.7,2.8,3,4.9,3.9
	c2.1,0.9,4.4,1.4,7,1.4c5.3,0,13.1-2,13.1-8.9h-8.9c0,1.5-1.2,3.7-4.2,3.7C65.9,107.5,64.9,107.1,64.2,106.2 M102.2,101.7
	c0-1,0.2-1.9,0.7-2.7c0.5-0.8,1.1-1.3,1.8-1.8c0.7-0.4,1.5-0.6,2.2-0.6c0.8,0,1.5,0.2,2.2,0.6c0.7,0.4,1.2,1,1.6,1.7
	c0.4,0.8,0.6,1.6,0.6,2.7c0,1-0.2,1.9-0.6,2.7c-0.4,0.8-0.9,1.3-1.6,1.7c-0.7,0.4-1.4,0.6-2.2,0.6c-0.7,0-1.5-0.2-2.2-0.6
	c-0.7-0.4-1.3-1-1.8-1.8C102.5,103.6,102.2,102.7,102.2,101.7 M95,96c-1.3,1.7-1.9,3.6-1.9,5.7c0,2.1,0.6,3.9,1.9,5.6
	c1.3,1.7,3,3,5.1,4c2.1,1,4.4,1.4,6.8,1.4c2.5,0,4.8-0.5,6.8-1.4c2-1,3.6-2.3,4.8-4s1.7-3.6,1.7-5.7c0-2.1-0.6-4-1.7-5.7
	s-2.7-3-4.7-4c-2-1-4.3-1.4-6.8-1.4c-2.4,0-4.7,0.5-6.8,1.4C98,93,96.3,94.4,95,96 M34.9,101.7c0-1.7,0.4-2.9,1.2-3.8
	c0.8-0.9,1.8-1.4,3.1-1.4c1.4,0,2.5,0.5,3.3,1.4c0.8,0.9,1.2,2.1,1.2,3.5c0,1.6-0.4,2.9-1.2,3.9c-0.8,1-1.8,1.5-3.3,1.5
	c-1.2,0-2.2-0.5-3-1.5c-0.8-1-1.2-2.1-1.2-3.5V101.7z M34.9,85.4l-9-1.2v28.9l8.4-0.6l0.3-3.1c1.9,2.1,3.7,3,8.1,3
	c1.7,0,4.1-0.5,5.5-1.4c1.3-1,2.4-2.3,3.2-3.9c0.8-1.7,1.2-3.5,1.2-5.6v-0.1v-0.1c0-1.8-0.5-3.5-1.2-5.1c-0.8-1.6-1.8-2.9-3.2-3.9
	c-1.4-1-3.7-1.5-5.4-1.5c-3.9,0-5.9,0.9-7.8,2.8V85.4z M165.7,82.7l2.1-0.3c-7.9-29.8-35.1-51.8-67.3-51.8
	c-32.2,0-59.4,22-67.3,51.8l2.1,0.3c7.8-28.7,34.1-50,65.2-50C131.6,32.7,157.9,53.9,165.7,82.7 M166,101.8c0,1.4-0.4,2.6-1.2,3.5
	c-0.8,1-1.8,1.5-3,1.5c-1.4,0-2.5-0.5-3.3-1.5c-0.8-1-1.1-2.3-1.2-3.9c0-1.4,0.4-2.6,1.2-3.5c0.8-0.9,1.9-1.4,3.3-1.4
	c1.3,0,2.3,0.5,3.1,1.4c0.8,0.9,1.2,2.2,1.2,3.8V101.8z M175,113.1V84.2l-9,1.2v8.2c-1.9-1.9-3.9-2.8-7.8-2.8
	c-1.7,0-4.1,0.5-5.4,1.5c-1.4,1-2.4,2.3-3.2,3.9c-0.8,1.6-1.2,3.3-1.2,5.1v0.1v0.1c0,2.1,0.4,3.9,1.2,5.6c0.8,1.7,1.8,3,3.2,3.9
	c1.3,1,3.7,1.4,5.5,1.4c4.1,0.1,6.2-0.9,8.1-3l0.3,3.1L175,113.1z"/>
</svg>
