<?xml version="1.0" encoding="utf-8"?>
<!-- Generator: Adobe Illustrator 26.0.0, SVG Export Plug-In . SVG Version: 6.00 Build 0)  -->
<svg version="1.1" id="Layer_1" xmlns="http://www.w3.org/2000/svg" xmlns:xlink="http://www.w3.org/1999/xlink" x="0px" y="0px"
	 viewBox="0 0 595.3 841.9" style="enable-background:new 0 0 595.3 841.9;" xml:space="preserve">
<style type="text/css">
	.st0{fill-rule:evenodd;clip-rule:evenodd;fill:#F9AE00;}
	.st1{fill-rule:evenodd;clip-rule:evenodd;}
	.st2{fill:none;stroke:#000000;stroke-width:0.5669;stroke-miterlimit:22.9256;}
	.st3{fill:#FFFFFF;}
</style>
<g>
	<polygon class="st0" points="27.1,134.5 143.6,134.5 143.6,117.8 163.1,117.8 163.1,134.5 432.2,134.5 432.2,117.8 451.6,117.8 
		451.6,134.5 568.1,134.5 568.1,149.7 27.1,149.7 	"/>
	<polygon class="st0" points="568.1,431.1 451.6,431.1 451.6,447.7 432.2,447.7 432.2,431.1 163.1,431.1 163.1,447.7 143.6,447.7 
		143.6,431.1 27.1,431.1 27.1,415.8 568.1,415.8 	"/>
	<rect x="161" y="38.5" class="st1" width="273.3" height="47.1"/>
	<rect x="161" y="38.5" class="st2" width="273.3" height="47.1"/>
	<polygon class="st3" points="180.5,49.6 193.6,49.6 193.6,54.9 185.8,54.9 185.8,59.3 192.5,59.3 192.5,64.4 185.8,64.4 
		185.8,74.6 180.5,74.6 	"/>
	<path class="st3" d="M201.2,62.1c0,2.5,0.3,4.3,1,5.4c0.7,1.1,1.5,1.7,2.6,1.7c1.2,0,2-0.6,2.7-1.6c0.6-1.1,0.9-3,0.9-5.8
		c0-2.4-0.3-4.1-1-5.2s-1.5-1.6-2.7-1.6c-1.1,0-1.9,0.5-2.6,1.6C201.5,57.7,201.2,59.6,201.2,62.1z M195.8,62.1
		c0-4.1,0.8-7.2,2.4-9.5c1.6-2.3,3.8-3.4,6.6-3.4c2.9,0,5.1,1.1,6.6,3.4c1.6,2.2,2.3,5.4,2.3,9.4c0,2.9-0.3,5.3-1,7.2
		c-0.7,1.9-1.7,3.4-2.9,4.4c-1.3,1-2.9,1.5-4.8,1.5c-2,0-3.6-0.5-4.8-1.3c-1.3-0.9-2.3-2.3-3.1-4.3C196.3,67.4,195.8,65,195.8,62.1z
		"/>
	<path class="st3" d="M222,59.7h2.3c0.2,0,0.7-0.1,1.4-0.3c0.4-0.1,0.7-0.3,0.9-0.8s0.3-0.9,0.3-1.5c0-0.8-0.2-1.4-0.5-1.9
		c-0.4-0.4-1-0.6-2-0.6H222V59.7z M216.7,74.6v-25h8.9c1.6,0,2.9,0.2,3.8,0.6s1.6,1.2,2.1,2.3c0.5,1.1,0.8,2.4,0.8,4.1
		c0,1.4-0.2,2.6-0.6,3.6c-0.4,1-1,1.8-1.7,2.4c-0.5,0.4-1.1,0.7-1.9,1c0.7,0.3,1.1,0.6,1.4,0.9c0.2,0.2,0.5,0.7,0.8,1.3
		c0.4,0.7,0.6,1.2,0.7,1.5l2.6,7.3h-6l-2.8-7.6c-0.4-1-0.7-1.6-1-1.9c-0.4-0.4-0.8-0.6-1.3-0.6H222v10.1H216.7z"/>
	<polygon class="st3" points="235.3,49.6 242.3,49.6 245,64.8 247.7,49.6 254.7,49.6 254.7,74.6 250.3,74.6 250.3,55.5 247,74.6 
		243,74.6 239.7,55.5 239.7,74.6 235.3,74.6 	"/>
	<path class="st3" d="M269.3,49.6h5.3v14.9c0,1.5-0.2,2.9-0.5,4.2c-0.3,1.3-0.8,2.4-1.5,3.5c-0.7,1-1.4,1.6-2.1,2.1
		c-1,0.6-2.3,0.8-3.7,0.8c-0.8,0-1.7-0.1-2.7-0.3c-1-0.2-1.8-0.5-2.5-1c-0.7-0.5-1.3-1.2-1.8-2.2c-0.6-0.9-0.9-1.9-1.1-2.9
		c-0.3-1.6-0.5-3-0.5-4.2V49.6h5.3v15.3c0,1.4,0.3,2.4,0.8,3.2c0.5,0.8,1.2,1.2,2.2,1.2c0.9,0,1.6-0.4,2.2-1.2
		c0.5-0.7,0.8-1.8,0.8-3.2V49.6z"/>
	<polygon class="st3" points="278.2,49.6 283.5,49.6 283.5,56.5 287.3,52.4 287.3,57.2 283.5,61.3 283.5,68.4 291.8,68.4 
		291.8,74.6 278.2,74.6 278.2,67.1 276.4,69 276.4,64.3 278.2,62.3 	"/>
	<path class="st3" d="M303.7,65l-1.9-9l-1.9,9H303.7z M304.9,70.4h-6.1l-0.8,4.1h-5.4l6.5-25h5.8l6.5,25h-5.6L304.9,70.4z"/>
	<path class="st3" d="M320.1,66.3l5.1-0.5c0.1,1.2,0.3,2.1,0.7,2.7c0.6,1,1.3,1.5,2.4,1.5c0.7,0,1.3-0.3,1.8-0.8
		c0.4-0.5,0.6-1.1,0.6-1.8s-0.2-1.2-0.6-1.7c-0.4-0.5-1.3-1-2.7-1.5c-2.4-0.7-4-1.7-5-3c-1-1.3-1.5-2.9-1.5-4.8
		c0-1.3,0.2-2.5,0.8-3.7c0.5-1.2,1.3-2,2.3-2.7c1-0.7,2.4-1,4.2-1c2.2,0,3.9,0.6,5,1.8c1.2,1.2,1.9,3.1,2.1,5.7l-5,0.5
		c-0.1-1.2-0.4-2-0.8-2.5c-0.4-0.5-1-0.8-1.8-0.8c-0.6,0-1.1,0.2-1.4,0.6c-0.3,0.3-0.5,0.8-0.5,1.4c0,0.4,0.1,0.7,0.4,1
		c0.3,0.3,0.8,0.6,1.8,0.9c2.3,0.7,4,1.5,5,2.2c1,0.7,1.7,1.7,2.2,2.8c0.4,1.1,0.7,2.3,0.7,3.7c0,1.6-0.3,3.1-0.9,4.4
		c-0.6,1.4-1.5,2.4-2.6,3.1c-1.1,0.7-2.5,1-4.2,1c-2.9,0-5-0.8-6.1-2.4C320.9,70.9,320.3,68.8,320.1,66.3z"/>
	<polygon class="st3" points="338.4,49.6 345.4,49.6 348.1,64.8 350.8,49.6 357.8,49.6 357.8,74.6 353.4,74.6 353.4,55.5 
		350.1,74.6 346.1,74.6 342.8,55.5 342.8,74.6 338.4,74.6 	"/>
	<path class="st3" d="M370.7,65l-1.9-9l-1.9,9H370.7z M371.8,70.4h-6.1l-0.8,4.1h-5.4l6.5-25h5.8l6.5,25h-5.6L371.8,70.4z"/>
	<polygon class="st3" points="380,49.6 385.3,49.6 385.3,59 390.9,49.6 398,49.6 391.7,59 398.3,74.6 391.7,74.6 388.1,64.3 
		385.3,68.4 385.3,74.6 380,74.6 	"/>
	<path class="st3" d="M411.2,49.6h5.3v14.9c0,1.5-0.2,2.9-0.5,4.2c-0.3,1.3-0.8,2.4-1.5,3.5c-0.7,1-1.4,1.6-2.1,2.1
		c-1,0.6-2.3,0.8-3.7,0.8c-0.8,0-1.7-0.1-2.7-0.3c-1-0.2-1.8-0.5-2.5-1c-0.7-0.5-1.3-1.2-1.8-2.2c-0.6-0.9-0.9-1.9-1.1-2.9
		c-0.3-1.6-0.5-3-0.5-4.2V49.6h5.3v15.3c0,1.4,0.3,2.4,0.8,3.2c0.5,0.8,1.2,1.2,2.2,1.2c0.9,0,1.6-0.4,2.2-1.2
		c0.5-0.7,0.8-1.8,0.8-3.2V49.6z"/>
	<path class="st1" d="M320.8,178.4h71.5v18.3H368v76.8h-21.3v-76.8h-25.9V178.4z M525,218.9h6.1c4.8,0,8.1-1,10-2.9
		c1.9-2,2.9-4.5,2.9-7.5c0-3-0.8-5.5-2.5-7.6c-1.7-2.1-4.8-3.1-9.4-3.1h-7V218.9z M500.2,178.4h41.1c8.9,0,15.7,2.5,20.1,7.6
		c4.5,5,6.7,12.3,6.7,21.6c0,9.6-2.4,17.1-7.3,22.5c-4.9,5.4-12.3,8.1-22.3,8.1H525v35.3h-24.8V178.4z M422.4,226.1
		c0,9.6,1.8,16.5,5.3,20.7c3.5,4.2,8.3,6.3,14.4,6.3c6.2,0,11.1-2.1,14.5-6.2c3.4-4.1,5.1-11.5,5.1-22.1c0-9-1.8-15.5-5.4-19.6
		c-3.6-4.1-8.4-6.2-14.5-6.2c-5.8,0-10.6,2.1-14.1,6.3C424.2,209.4,422.4,216.4,422.4,226.1z M393.3,225.9
		c0-15.5,4.3-27.6,12.8-36.2c8.6-8.6,20.5-13,35.8-13c15.7,0,27.7,4.2,36.2,12.7c8.5,8.5,12.7,20.4,12.7,35.7
		c0,11.1-1.9,20.2-5.6,27.3c-3.7,7.1-9,12.6-16,16.6c-7,4-15.7,5.9-26.2,5.9c-10.6,0-19.4-1.7-26.4-5.1c-6.9-3.4-12.6-8.8-16.9-16.2
		C395.5,246.3,393.3,237,393.3,225.9z M271.3,244.8c0.4-0.2,3.3,11.5,12.7,11.5c3.4,0,6-1,7.8-2.9c1.8-2,2.7-4.2,2.7-6.8
		c0-2.5-0.9-4.7-2.6-6.6c-1.8-1.9-5.8-3.8-12.2-5.5c-10.4-2.9-17.8-6.7-22.3-11.5c-4.5-4.8-6.7-10.9-6.7-18.3
		c0-4.9,1.1-9.5,3.4-13.9c2.3-4.3,5.7-7.7,10.3-10.2c4.6-2.5,10.9-3.7,18.9-3.7c9.8,0,17.8,1.8,22.4,6.8l2.9,3.1l-17.4,14.5
		c-0.3,0.3-2.5-6.7-10.2-6.7c-2.8,0-4.8,0.7-6.2,2.2c-1.4,1.4-2.1,3.2-2.1,5.3c0,1.5,0.6,2.9,1.7,4.1c1.1,1.3,3.8,2.4,8,3.5
		c10.4,2.8,17.8,5.6,22.3,8.4c4.5,2.8,7.8,6.3,9.8,10.5c2,4.2,3.1,8.9,3.1,14.1c0,6.1-1.4,11.7-4.1,16.8c-2.7,5.2-6.5,9-11.4,11.7
		c-4.9,2.7-11,4-18.5,4c-19.8,0-24.8-5.1-33.3-20.7L271.3,244.8z M135.5,178.4h77v18.3h-26.2v76.8h-22.9v-76.8h-27.9V178.4z
		 M104.8,178.4h18.7v95h-18.7V178.4z M51.1,218.9h5.8c4.6,0,7.8-1,9.6-2.9c1.8-2,2.8-4.5,2.8-7.5c0-3-0.8-5.5-2.4-7.6
		c-1.6-2.1-4.6-3.1-9-3.1h-6.8V218.9z M27.2,178.4h39.4c8.6,0,15,2.5,19.3,7.6c4.3,5,6.4,12.3,6.4,21.6c0,9.6-2.3,17.1-7,22.5
		c-4.7,5.4-11.8,8.1-21.3,8.1h-13v35.3H27.2V178.4z"/>
	<rect x="27.1" y="304.1" class="st1" width="541" height="4.9"/>
	<path d="M29.5,375.9l9.3-1c0.5,3.5,1.7,5.9,3.4,7.6c1.7,1.6,4,2.4,6.9,2.4c3.1,0,5.4-0.7,6.9-2.2c1.6-1.4,2.4-3.1,2.4-5
		c0-1.2-0.3-2.2-1-3.1c-0.7-0.9-1.8-1.7-3.4-2.2c-1.1-0.4-3.7-1.2-7.7-2.3c-5.1-1.4-8.7-3-10.8-5.1c-2.9-2.9-4.4-6.3-4.4-10.4
		c0-2.7,0.7-5.1,2-7.4c1.4-2.2,3.4-4,5.9-5.2c2.6-1.2,5.7-1.8,9.3-1.8c5.9,0,10.4,1.4,13.4,4.3c3,2.8,4.6,6.6,4.8,11.4l-9.6,0.4
		c-0.4-2.7-1.3-4.5-2.6-5.7c-1.3-1.2-3.4-1.7-6-1.7c-2.8,0-5,0.6-6.5,1.9c-1,0.7-1.5,1.8-1.5,3.2c0,1.2,0.5,2.2,1.5,3.1
		c1.2,1.2,4.1,2.3,8.7,3.5c4.7,1.2,8.1,2.5,10.3,3.8c2.2,1.2,4,3,5.3,5.3c1.3,2.2,1.8,4.9,1.8,8.2c0,2.9-0.7,5.7-2.2,8.3
		c-1.5,2.5-3.6,4.5-6.4,5.7c-2.7,1.3-6.1,1.9-10.2,1.9c-6,0-10.6-1.5-13.8-4.5C32,386.1,30.2,381.7,29.5,375.9z"/>
	<polygon points="86.6,392.7 86.6,349.8 72.6,349.8 72.6,341.1 110.1,341.1 110.1,349.8 96.1,349.8 96.1,392.7 	"/>
	<polygon points="116.3,392.7 116.3,341.1 151.4,341.1 151.4,349.8 125.8,349.8 125.8,361.3 149.6,361.3 149.6,369.9 125.8,369.9 
		125.8,384 152.3,384 152.3,392.7 	"/>
	<path d="M185.4,372.3l-6.5-19.2l-6.4,19.2H185.4z M203,392.7h-10.4l-4.2-11.8h-18.9l-3.9,11.8h-10.1l18.4-51.7h10.1L203,392.7z"/>
	<polygon points="208.2,392.7 208.2,341.1 217.7,341.1 217.7,364 237,341.1 249.9,341.1 232,361.2 250.8,392.7 238.4,392.7 
		225.4,368.5 217.7,377.1 217.7,392.7 	"/>
	<path d="M266.1,373.8c-1.3,1.1-2.2,2.1-2.7,2.8c-0.4,0.7-0.6,1.6-0.6,2.4c0,1.4,0.5,2.6,1.5,3.6c1,1.1,2.3,1.6,3.9,1.6
		c1.7,0,3.6-0.8,5.8-2.3C271.9,380.1,269.3,377.4,266.1,373.8z M269.5,363.9c1.2-0.8,2.2-1.7,2.8-2.6c0.7-1,1-1.8,1-2.7
		c0-0.9-0.3-1.6-0.8-2.2c-0.6-0.6-1.4-0.9-2.4-0.9c-1,0-1.7,0.3-2.4,1c-0.6,0.7-0.9,1.4-0.9,2.3
		C266.9,360.1,267.8,361.8,269.5,363.9z M280.5,371.1l7.5,1.9c-0.4,1.7-0.8,3-1.2,3.9c-0.4,1-0.9,2.2-1.5,3.5l3.6,3
		c0.4,0.3,1,0.7,1.7,1.2l-5.2,7c-0.9-0.6-1.9-1.3-2.9-2.1c-1-0.8-1.9-1.5-2.7-2.1c-1.6,1.3-3.3,2.3-5,2.8c-2.3,0.8-4.9,1.3-7.8,1.3
		c-4.6,0-8.1-1.1-10.3-3.4c-2.2-2.3-3.3-5-3.3-8.2c0-2.3,0.6-4.6,2-6.6c1.3-2.1,3.5-3.8,6.5-5.2c-1.3-1.8-2.1-3.4-2.6-4.7
		c-0.5-1.4-0.7-2.7-0.7-4c0-2.9,0.9-5.3,2.8-7.2c1.8-1.9,4.7-2.8,8.5-2.8c3.9,0,6.8,0.9,8.5,2.7c1.8,1.8,2.7,3.9,2.7,6.4
		c0,1.4-0.3,2.7-0.9,4c-0.5,1.3-1.2,2.3-2,3.1c-0.8,0.8-2.2,2-4.2,3.6c1.6,2,3.4,3.8,5.2,5.5C279.8,373.6,280.2,372.3,280.5,371.1z"
		/>
	<path d="M305.3,368.9v13.4h8.5c3.3,0,5.4-0.1,6.3-0.3c1.3-0.3,2.5-0.9,3.3-2c0.9-1.1,1.3-2.5,1.3-4.2c0-1.5-0.4-2.8-1-3.9
		c-0.7-1.1-1.6-1.8-2.8-2.3c-1.3-0.5-4-0.7-8.1-0.7H305.3z M305.3,348.9v11.6h5.9c3.6,0,5.8-0.1,6.7-0.2c1.5-0.1,2.8-0.8,3.7-1.8
		c0.9-1,1.3-2.3,1.3-3.9c0-1.5-0.4-2.8-1.1-3.8c-0.8-1-2-1.5-3.5-1.8c-0.9-0.1-3.5-0.2-7.8-0.2H305.3z M296.1,340.6h18.1
		c3.6,0,6.3,0.1,8,0.5c1.8,0.4,3.3,1.1,4.7,2.1c1.4,1.1,2.5,2.5,3.5,4.2c0.9,1.8,1.4,3.7,1.4,5.8c0,2.4-0.6,4.6-1.7,6.5
		c-1.2,2-2.7,3.4-4.7,4.4c2.8,0.8,4.9,2.4,6.4,4.5c1.5,2.2,2.2,4.7,2.2,7.6c0,2.3-0.5,4.6-1.5,6.7c-0.9,2.1-2.3,3.9-3.9,5.1
		c-1.6,1.3-3.7,2.1-6.1,2.4c-1.5,0.2-5.2,0.3-11,0.4h-15.4V340.6z"/>
	<path d="M341.6,340.6h9.1v27.2c0,4.3,0.1,7.1,0.4,8.4c0.4,2,1.3,3.6,2.8,4.9c1.5,1.3,3.5,1.9,6,1.9c2.6,0,4.5-0.6,5.9-1.8
		c1.3-1.2,2.1-2.7,2.4-4.3c0.3-1.8,0.4-4.6,0.4-8.5v-27.7h9.1v26.3c0,6-0.2,10.3-0.7,12.7c-0.5,2.5-1.4,4.6-2.7,6.3
		c-1.3,1.7-3.2,3.1-5.3,4.1c-2.3,1.1-5.2,1.5-8.7,1.5c-4.4,0-7.6-0.6-9.9-1.7c-2.2-1.1-4-2.5-5.3-4.3c-1.3-1.8-2.1-3.6-2.5-5.5
		c-0.6-2.9-0.9-7.1-0.9-12.7V340.6z"/>
	<path d="M396.4,361.8h6.8c4.4,0,7.1-0.2,8.2-0.6c1.1-0.4,1.9-1.1,2.5-2.1c0.6-1,0.9-2.2,0.9-3.8c0-1.7-0.4-3-1.3-4.1
		c-0.8-1.1-1.9-1.7-3.4-2c-0.8-0.1-3-0.2-6.7-0.2h-7.1V361.8z M387.3,390.7v-50.2h19.3c4.8,0,8.3,0.5,10.5,1.4
		c2.2,0.8,4,2.5,5.3,4.8c1.3,2.3,2,4.9,2,7.9c0,3.7-1,6.9-3,9.3c-2,2.5-5,4-8.9,4.6c2,1.3,3.6,2.7,4.9,4.2c1.3,1.5,3,4.3,5.2,8.1
		l5.6,9.8H417l-6.6-10.9c-2.4-3.9-4-6.3-4.9-7.4c-0.8-1.1-1.8-1.7-2.7-2.1c-1-0.4-2.5-0.6-4.6-0.6h-1.8v20.9H387.3z"/>
	<path d="M453.9,372.3v-8.5h19.6v20c-1.9,2.1-4.7,3.9-8.3,5.5c-3.7,1.5-7.3,2.3-11.1,2.3c-4.7,0-8.8-1.1-12.4-3.3
		c-3.5-2.2-6.1-5.3-7.9-9.5c-1.8-4.1-2.7-8.5-2.7-13.3c0-5.3,1-9.9,3-13.9s4.9-7.2,8.7-9.3c2.9-1.7,6.5-2.5,10.8-2.5
		c5.6,0,10,1.3,13.2,3.9c3.2,2.6,5.2,6.2,6.1,10.8l-9.1,1.9c-0.6-2.5-1.8-4.4-3.5-5.8c-1.8-1.4-4-2.1-6.6-2.1c-4,0-7.1,1.4-9.5,4.2
		c-2.4,2.8-3.5,6.9-3.5,12.5c0,6,1.2,10.4,3.6,13.4c2.3,3,5.5,4.5,9.3,4.5c1.9,0,3.8-0.4,5.7-1.3c1.9-0.8,3.6-1.9,4.9-3v-6.4H453.9z
		"/>
	<polygon points="482,390.7 482,340.6 515.5,340.6 515.5,349.1 491.1,349.1 491.1,360.2 513.8,360.2 513.8,368.6 491.1,368.6 
		491.1,382.3 516.3,382.3 516.3,390.7 	"/>
	<path d="M533.3,361.8h6.8c4.4,0,7.1-0.2,8.2-0.6c1.1-0.4,1.9-1.1,2.5-2.1c0.6-1,0.9-2.2,0.9-3.8c0-1.7-0.4-3-1.3-4.1
		c-0.8-1.1-1.9-1.7-3.4-2c-0.8-0.1-3-0.2-6.7-0.2h-7.1V361.8z M524.1,390.7v-50.2h19.3c4.8,0,8.3,0.5,10.5,1.4
		c2.2,0.8,4,2.5,5.3,4.8c1.3,2.3,2,4.9,2,7.9c0,3.7-1,6.9-3,9.3c-2,2.5-5,4-8.9,4.6c2,1.3,3.6,2.7,4.9,4.2c1.3,1.5,3,4.3,5.2,8.1
		l5.6,9.8h-10.9l-6.6-10.9c-2.4-3.9-4-6.3-4.9-7.4c-0.8-1.1-1.8-1.7-2.7-2.1c-1-0.4-2.5-0.6-4.6-0.6h-1.8v20.9H524.1z"/>
	<path d="M432.9,477.9l-0.5-4.1l2.7-1.7l-0.4,4.8L432.9,477.9z M439.5,498.6l-1.3-2l1.6-16.1c0.1-1.1,0.3-2.2,0.4-3.1l-9.2,6l-1.3-2
		l11.9-7.7l1.3,2l-1.8,17.5l-0.2,1.8l10.6-6.9l1.3,2L439.5,498.6z M424.8,504.5l3.7-2c1.1-0.6,2-1.2,2.5-1.8
		c0.5-0.6,0.9-1.2,1.1-1.8c0.2-0.8,0.3-1.8,0.1-2.9c-0.2-1.1-0.7-2.3-1.4-3.6c-1-1.8-2.1-3-3.2-3.7c-1.1-0.6-2.2-0.9-3.2-0.8
		c-0.7,0.1-1.8,0.5-3.2,1.3l-3.6,2L424.8,504.5z M423.7,507.8l-9.6-17.3l5.9-3.3c1.3-0.7,2.4-1.2,3.2-1.5c1.1-0.3,2.2-0.4,3.2-0.2
		c1.3,0.3,2.6,0.9,3.7,1.8c1.1,0.9,2.1,2.2,3,3.7c0.7,1.3,1.2,2.6,1.5,3.7c0.3,1.2,0.3,2.2,0.2,3.2c-0.1,0.9-0.3,1.7-0.7,2.4
		c-0.4,0.7-0.9,1.4-1.6,2c-0.7,0.6-1.6,1.3-2.6,1.8L423.7,507.8z M401.8,494.5l0.1-4.2l2.9-1.3l-1.2,4.6L401.8,494.5z M401.8,507
		c1,2.2,2.3,3.6,4,4.4c1.7,0.7,3.5,0.7,5.2-0.1c1.8-0.8,3-2.1,3.6-3.9c0.6-1.8,0.4-3.8-0.7-6.2c-0.7-1.5-1.5-2.6-2.5-3.5
		c-1-0.9-2.1-1.4-3.3-1.6c-1.2-0.2-2.4,0-3.6,0.5c-1.7,0.8-2.9,2-3.6,3.7C400.4,502.1,400.6,504.3,401.8,507z M399.3,508.1
		c-1.3-3-1.6-5.7-0.7-8.1c0.9-2.4,2.6-4.2,5.1-5.3c1.7-0.7,3.3-1,5-0.8c1.7,0.2,3.2,0.9,4.5,2c1.3,1.1,2.4,2.6,3.2,4.4
		c0.8,1.8,1.2,3.6,1.1,5.4c-0.1,1.8-0.7,3.3-1.7,4.7c-1,1.3-2.3,2.4-3.9,3.1c-1.7,0.8-3.4,1-5.1,0.8c-1.7-0.2-3.2-0.9-4.5-2
		C401.1,511,400.1,509.7,399.3,508.1z M386.9,514.8l-1.3,2.2l-0.7-2.1l1.3-2.2l-3.2-9.3l2.5-0.8l2.5,7.2l3-5l0.7,2.1l-3,5l2.4,7.1
		l9.3-3.2l0.8,2.2l-11.7,4L386.9,514.8z M375.4,526.3l-0.8-2.6l2.6-0.8l0.8,2.6c0.3,1,0.4,1.8,0.2,2.5c-0.2,0.7-0.6,1.3-1.2,1.9
		l-0.9-0.8c0.4-0.4,0.7-0.8,0.8-1.3c0.1-0.5,0.1-1.1-0.2-1.9L375.4,526.3z M367.9,528l-5.1-19.1l2.5-0.7l5.1,19.1L367.9,528z
		 M360.5,529.8l-4.4-19.2l2.5-0.6l4.4,19.2L360.5,529.8z M338.2,525.7l6.6-0.9l-2.8-5.1c-0.8-1.6-1.5-2.8-2-3.9
		c-0.1,1.3-0.2,2.6-0.5,3.9L338.2,525.7z M333.7,534.5l4.8-20.6l2.8-0.4l10.7,18.4l-2.9,0.4l-3.1-5.6l-8.2,1.1l-1.3,6.2L333.7,534.5
		z M319.8,528.1l-1.8,1.8l-0.2-2.2l1.8-1.9l-1-9.8l2.6-0.3l0.8,7.6l4.1-4.2l0.2,2.2l-4.1,4.2l0.8,7.5l9.7-1l0.2,2.3l-12.3,1.3
		L319.8,528.1z M298.2,536.8l-5.9-19.5l2.7-0.1l3.5,12.8c0.4,1.3,0.7,2.7,1,4c0.4-2.1,0.7-3.3,0.8-3.7l3.3-13.4l3.2-0.1l3.2,9.9
		c0.8,2.5,1.4,4.8,1.8,6.9c0.2-1.3,0.5-2.7,0.8-4.3l2.6-12.8l2.6-0.1l-4.7,19.9l-2.5,0.1l-4.7-14.9c-0.4-1.2-0.6-2-0.7-2.3
		c-0.2,0.9-0.3,1.7-0.5,2.3l-3.7,15.2L298.2,536.8z M281.5,527.9l6.7,0.5l-1.7-5.6c-0.5-1.7-0.9-3.1-1.1-4.2
		c-0.3,1.2-0.8,2.5-1.3,3.7L281.5,527.9z M275.3,535.6l8.9-19.2l2.8,0.2l6.7,20.3l-3-0.2l-1.9-6.1l-8.2-0.6l-2.6,5.8L275.3,535.6z
		 M264.7,524.1l5.1,0.5c1.7,0.2,2.9,0,3.7-0.6c0.8-0.6,1.2-1.4,1.3-2.5c0.1-0.8,0-1.5-0.4-2.2c-0.4-0.6-0.9-1.1-1.5-1.3
		c-0.4-0.2-1.2-0.3-2.4-0.4l-5-0.5L264.7,524.1z M261.1,534.2l2.1-19.6l7.4,0.8c1.3,0.1,2.3,0.3,3,0.5c0.9,0.3,1.7,0.7,2.3,1.2
		c0.6,0.5,1.1,1.2,1.4,2.1c0.3,0.9,0.4,1.8,0.3,2.7c-0.2,1.7-0.9,3-2,4.1c-1.2,1-3.2,1.4-5.9,1.1l-5-0.5l-0.8,8L261.1,534.2z
		 M241.7,523.1l6.6,1.2l-1.1-5.7c-0.3-1.7-0.6-3.2-0.7-4.3c-0.5,1.2-1,2.4-1.7,3.5L241.7,523.1z M234.7,530.1l10.9-18.1l2.8,0.5
		l4.5,20.8l-2.9-0.5l-1.2-6.3l-8.1-1.4l-3.2,5.5L234.7,530.1z M217.6,525.4l5.1-19.1l2.6,0.7l6,17.7l4-15l2.4,0.6l-5.1,19.1
		l-2.6-0.7l-6-17.7l-4,15L217.6,525.4z M206,513.2l6.3,2.2l-0.2-5.8c-0.1-1.8,0-3.2,0-4.3c-0.7,1.1-1.4,2.2-2.2,3.2L206,513.2z
		 M198,519l13.6-16.2l2.7,0.9l1.2,21.3l-2.8-1l-0.2-6.4l-7.8-2.7l-4,4.9L198,519z M188.2,508.9l2.3,0.6c-0.5,1.4-0.6,2.5-0.4,3.2
		c0.3,0.7,0.8,1.2,1.6,1.6c0.6,0.2,1.2,0.3,1.7,0.2c0.6-0.1,1-0.4,1.4-0.8c0.4-0.4,0.8-1.1,1.2-2.2l5.1-12.6l2.4,1l-5,12.5
		c-0.6,1.5-1.3,2.6-2,3.3c-0.7,0.7-1.6,1.1-2.5,1.2c-1,0.1-2,0-3.1-0.5c-1.6-0.6-2.6-1.6-3.1-2.9
		C187.3,512.3,187.4,510.7,188.2,508.9 M173.7,508.3l1.2-2.5l2.5,1.2l-1.2,2.5L173.7,508.3z M159.8,501l9.6-17.3l2.3,1.3l-8.4,15.2
		l8.5,4.7l-1.1,2L159.8,501z M151.8,486.1l5.6,3.6l1.2-5.7c0.4-1.7,0.7-3.1,1.1-4.2c-0.9,0.9-1.9,1.8-2.9,2.6L151.8,486.1z
		 M142.6,489.8l17.1-12.4l2.4,1.5l-4,21l-2.5-1.6l1.3-6.3l-6.9-4.5l-5.1,3.8L142.6,489.8z"/>
</g>
</svg>
