<svg width="172" height="25" viewBox="0 0 172 25" fill="none" xmlns="http://www.w3.org/2000/svg">
<path fill-rule="evenodd" clip-rule="evenodd" d="M9.25082 3.26254H7.35811C7.35811 4.6567 7.36733 6.66493 7.36733 8.10054C7.36733 9.23995 7.32941 10.6868 7.34868 11.856C8.56484 11.8918 10.1109 11.8539 11.2458 11.4542C12.08 11.1461 13.8912 9.96192 13.8912 7.4269C13.8912 4.44256 11.5388 3.26254 9.25082 3.26254ZM19.9834 23.0776H15.7779C14.5605 21.4916 9.45766 14.8462 8.04899 13.076L7.35808 13.0846C7.3831 14.7343 7.35808 23.0776 7.35808 23.0776L4.09525 23.0828V1.92732H11.4291C13.3802 1.92732 15.1296 2.39787 16.3446 4.15406C16.9201 4.98851 17.2901 6.04627 17.2901 7.07923C17.2585 7.81766 17.0443 9.4899 15.5868 10.9401C14.442 12.0745 13.5281 12.3974 12.02 12.7275C13.2535 14.3602 18.4241 21.0492 19.9834 23.0776ZM126.795 1.92732H128.489C129.085 2.6018 140.989 15.3384 142.685 17.1002C142.714 14.1288 142.673 3.63122 142.685 1.92732H144.818C144.813 4.59753 144.813 21.3099 144.818 23.0828H143.329C141.62 21.185 129.925 8.68732 128.913 7.67039C128.878 9.96816 128.805 20.1216 128.814 23.0776H126.795C126.801 21.4314 126.814 5.45032 126.795 1.92732ZM99.6086 1.92732H100.906C101.082 3.23503 103.5 21.3006 103.743 23.0776L100.541 23.0828C100.242 20.8394 98.9638 11.3927 98.6142 8.64566C96.7955 12.3276 92.2597 22.4437 91.9643 23.0828L90.9562 23.0776C89.9063 20.981 84.6378 10.1494 83.7673 8.47381C83.6009 10.0477 82.1098 21.4095 82.0183 23.0776H79.9823L82.6496 1.92732H84.147C84.4929 2.7774 91.2761 16.6092 92.0656 18.0275C92.3596 17.4308 98.8086 3.58206 99.6086 1.92732ZM46.8088 18.6499L47.5422 18.6175C47.747 18.9909 47.9034 19.3615 48.1476 19.7325C48.4434 20.1793 49.5198 21.5682 50.8581 21.994C51.1205 22.0967 51.8654 22.2171 52.7277 22.2171C56.4069 22.1865 57.9002 17.3083 55.38 15.0355C54.5868 14.2935 53.5596 13.9888 52.5889 13.5949C50.9469 12.9494 49.8872 12.4442 49.2137 12.0208C47.672 11.0315 46.7443 9.75611 46.7443 7.8087C46.7443 6.91572 46.9511 5.03726 48.5802 3.46688C49.5405 2.53244 50.9912 1.72235 53.786 1.72235C53.9891 1.72235 54.7719 1.72235 55.4693 1.84233C56.6543 2.05668 57.1039 2.23873 58.2104 2.72595C58.2436 3.74496 58.3658 6.09001 58.3658 6.09001H57.3891C56.8218 4.90894 56.3257 3.73829 55.1387 3.25003C54.7036 3.06673 54.1095 2.92342 53.1926 2.92342C50.5666 2.92342 49.8041 5.48552 49.8041 6.57514C49.8041 7.4523 50.2156 8.09408 50.396 8.33466C50.8036 8.89645 51.4309 9.39783 52.8207 9.97379C54.5052 10.7035 56.8356 11.2028 58.1657 12.5501C59.1947 13.5547 59.6984 15.1869 59.6984 16.6744C59.6693 20.0747 57.4189 21.8742 56.4817 22.4529C54.3657 23.7367 51.3061 23.7604 48.9716 23.1726C48.2105 22.9822 47.4985 22.6552 46.7725 22.3531L46.8088 18.6499ZM111.172 13.1791H116.579L113.849 6.89572C113.444 7.77892 111.643 11.9939 111.172 13.1791ZM113.797 1.92732H115.335C115.754 2.95862 124.017 21.9121 124.521 23.0828H120.911C119.698 20.3041 118.615 17.829 117.419 15.0665C116.233 15.0665 111.74 15.0815 110.377 15.0665C108.991 18.4466 108.389 19.8358 106.99 23.0776H104.808C105.896 20.5528 113.145 3.46104 113.797 1.92732ZM25.0561 6.32227H34.2554L34.8405 5.14433C35.2081 4.34237 36.4757 4.97831 36.144 5.70778L35.8482 6.32227H39.0905C37.3868 4.32946 34.8731 3.06673 32.0728 3.06673C29.2647 3.06673 26.7561 4.32716 25.0561 6.32227ZM35.5546 21.245L31.755 17.3747L33.2771 14.4116H35.8318L35.1315 16.123L36.2101 16.8404L37.2624 14.4116H38.3605L37.6372 16.123L38.7164 16.8404L39.8153 14.4044C40.1054 13.6016 39.7843 12.8535 38.8175 12.8344H37.3731L37.3774 7.56208L39.984 7.55562C40.8553 8.9956 41.3562 10.6849 41.3562 12.4967C41.3562 16.4567 38.9575 19.8456 35.5546 21.245ZM32.5394 21.9209C33.045 21.8917 33.5383 21.8249 34.0184 21.7247L29.6854 17.3214L31.1232 14.4044H29.864L28.2747 17.5793L32.5394 21.9209ZM24.1655 7.55562C23.2922 8.9904 22.7895 10.6849 22.7895 12.4967C22.7895 17.1262 26.0712 20.9729 30.4005 21.7728L26.2001 17.5393L27.2102 15.5304C26.5573 14.9928 26.0111 14.2856 26.0111 13.3133C26.0111 12.5005 26.1897 12.0795 26.5222 11.6048H25.3481V15.9664C24.8187 15.7396 24.3105 15.5248 24.3105 14.8182V11.6306C24.3105 11.0465 24.7781 10.5785 25.3532 10.5785H34.1478L32.9011 7.56208L24.1655 7.55562ZM32.0728 1.04163C38.2986 1.04163 43.3483 6.17229 43.3483 12.4967C43.3483 18.8249 38.2986 23.9583 32.0728 23.9583C25.8442 23.9583 20.7957 18.8249 20.7957 12.4967C20.7957 6.17229 25.8442 1.04163 32.0728 1.04163ZM63.5882 18.6499L64.3195 18.6175C64.5274 18.9909 64.6811 19.3615 64.9259 19.7325C65.2238 20.1793 66.3008 21.5682 67.6344 21.994C67.8999 22.0967 68.6458 22.2171 69.5077 22.2171C73.1842 22.1865 74.6763 17.3083 72.1587 15.0355C71.3641 14.2935 70.3386 13.9888 69.3676 13.5949C67.7291 12.9494 66.6651 12.4442 65.9972 12.0208C64.4521 11.0315 63.5238 9.75611 63.5238 7.8087C63.5238 6.91572 63.7305 5.03726 65.3579 3.46688C66.3184 2.53244 67.7695 1.72235 70.5647 1.72235C70.7679 1.72235 71.5511 1.72235 72.2461 1.84233C73.4368 2.05668 73.8827 2.23873 74.9867 2.72595C75.023 3.74496 75.1462 6.09001 75.1462 6.09001H74.1714C73.6 4.90894 73.1012 3.73829 71.9174 3.25003C71.4842 3.06673 70.8878 2.92342 69.9753 2.92342C67.3474 2.92342 66.5835 5.48552 66.5835 6.57514C66.5835 7.4523 66.9919 8.09408 67.1729 8.33466C67.5844 8.89645 68.2134 9.39783 69.5979 9.97379C71.2831 10.7035 73.6129 11.2028 74.9457 12.5501C75.9747 13.5547 76.4788 15.1869 76.4788 16.6744C76.4497 20.0747 74.1992 21.8742 73.2611 22.4529C71.1416 23.7367 68.0875 23.7604 65.7509 23.1726C64.9905 22.9822 64.2758 22.6552 63.5503 22.3531L63.5882 18.6499ZM150.904 1.92732H152.601C153.196 2.6018 165.1 15.3384 166.799 17.1002C166.825 14.1288 166.793 3.26253 166.793 1.92732H168.928V23.0828H167.439C165.734 21.185 154.035 8.68732 153.026 7.67039C152.994 9.96816 152.919 21.326 152.928 23.0776H150.904C150.912 21.4314 150.934 5.16328 150.904 1.92732Z" fill="#C8102E"/>
</svg>
